<svg width="170" height="170" viewBox="0 0 170 170" fill="none" xmlns="http://www.w3.org/2000/svg">
<path d="M88.0412 107.409L67.7225 127.426C66.4332 128.696 64.2515 127.782 64.2515 125.973V97.9331H88.0409V107.409H88.0412Z" fill="#2C8311"/>
<path d="M78.3301 99.8707L123.68 137.218C124.843 138.176 126.609 137.585 126.96 136.12L159.024 2.52025C159.419 0.876691 157.757 -0.506222 156.213 0.18042L12.1282 64.2178C10.5132 64.9356 10.5132 67.2276 12.1282 67.9455L58.6193 88.6081L78.3301 99.8707Z" fill="#27A600"/>
<path d="M144.611 17.5912L78.3302 99.871L67.5289 127.006C66.6812 128.871 63.921 128.463 63.6501 126.432L58.6191 88.6085L141.668 14.7879C143.538 13.1244 146.181 15.6425 144.611 17.5912Z" fill="#299607"/>
<path d="M82.9489 131.857C81.9531 130.862 80.3388 130.861 79.3433 131.857L56.8176 154.383C55.8219 155.379 55.8219 156.993 56.8176 157.989C57.3153 158.487 57.9681 158.736 58.6202 158.736C59.2727 158.736 59.9251 158.487 60.4228 157.989L82.9485 135.463C83.9446 134.467 83.9446 132.853 82.9489 131.857Z" fill="#2F4BAE"/>
<path d="M45.5529 103.875L23.2029 126.225C22.2071 127.221 22.2071 128.835 23.2029 129.832C23.7006 130.329 24.3534 130.578 25.0055 130.578C25.6579 130.578 26.3104 130.329 26.8081 129.832L49.1581 107.481C50.1539 106.485 50.1539 104.871 49.1581 103.875C48.163 102.88 46.5487 102.88 45.5529 103.875Z" fill="#2F4BAE"/>
<path d="M45.5528 131.858L11.7639 165.648C10.7681 166.644 10.7681 168.258 11.7639 169.254C12.2616 169.751 12.9144 170 13.5665 170C14.219 170 14.8714 169.751 15.3691 169.253L49.1583 135.463C50.1541 134.467 50.1541 132.853 49.1583 131.858C48.1629 130.863 46.5486 130.863 45.5528 131.858Z" fill="#2F4BAE"/>
</svg>
